# xmcd CD database file
#
# Track frame offsets:
#	150
#	17254
#	40868
#
# Disc length: 763 seconds
#
# Revision: 0
# Processed by: cddbd v1.5.1PL0 Copyright (c) Steve Scherf et al.
# Submitted via: CDex 1.50
#
DISCID=1402f903
DTITLE=倉橋ヨエコ - 東京メゾピアノ
DYEAR=2004
DGENRE=JPop
TTITLE0=赤い靴
TTITLE1=はないちもんめ （回想編）
TTITLE2=白い旗 （弾き語り編）
EXTD=YEAR: 2004
EXTT0=
EXTT1=
EXTT2=
PLAYORDER=
